<?xml version="1.0" standalone="no"?>
<!DOCTYPE svg PUBLIC "-//W3C//DTD SVG 20010904//EN"
 "http://www.w3.org/TR/2001/REC-SVG-20010904/DTD/svg10.dtd">
<svg version="1.0" xmlns="http://www.w3.org/2000/svg"
 width="666.000000pt" height="635.000000pt" viewBox="0 0 666.000000 635.000000"
 preserveAspectRatio="xMidYMid meet">

<g transform="translate(0.000000,635.000000) scale(0.100000,-0.100000)"
fill="#000000" stroke="none">
<path d="M5446 5709 c-363 -43 -647 -331 -691 -699 l-7 -55 259 -43 c142 -23
261 -42 264 -42 4 0 10 20 13 44 13 82 85 168 165 195 103 34 215 -21 241
-120 22 -82 -20 -200 -116 -329 -142 -189 -493 -481 -757 -630 -32 -18 -61
-38 -63 -45 -5 -11 34 -477 39 -481 1 0 368 1 815 4 740 4 812 6 812 21 0 9
-12 128 -27 265 l-27 249 -225 -7 c-124 -3 -272 -9 -328 -13 -58 -3 -103 -2
-102 3 0 5 34 36 75 69 212 169 395 411 464 611 66 190 45 437 -52 634 -59
121 -179 241 -298 298 -141 67 -291 90 -454 71z"/>
<path d="M6311 5345 c54 -120 73 -222 73 -390 -1 -122 -5 -165 -22 -230 -45
-164 -165 -362 -317 -524 l-67 -71 65 0 65 0 46 53 c153 174 253 367 285 551
34 191 -14 452 -114 616 -20 33 -38 60 -40 60 -2 0 10 -29 26 -65z"/>
<path d="M5462 5003 c-18 -9 -44 -35 -57 -58 -21 -34 -25 -55 -25 -118 0 -55
-4 -77 -12 -77 -7 0 -154 24 -326 53 l-312 54 -6 -24 c-4 -13 -4 -27 0 -30 5
-5 681 -122 709 -123 4 0 7 32 7 70 0 39 6 85 14 103 17 43 68 85 111 93 31 5
33 8 23 29 -11 24 -47 45 -76 45 -9 0 -32 -8 -50 -17z"/>
<path d="M4548 4688 c-189 -326 -199 -346 -192 -373 5 -21 22 3 114 163 59
103 133 229 164 280 54 89 60 112 32 112 -7 0 -60 -82 -118 -182z"/>
<path d="M3421 4619 c9 -13 43 -73 77 -134 57 -102 69 -118 176 -213 64 -57
116 -107 116 -112 0 -5 9 -71 20 -147 18 -122 45 -221 58 -209 2 3 -11 112
-28 243 -30 220 -35 240 -59 267 -33 36 -338 308 -360 320 -14 9 -14 8 0 -15z"/>
<path d="M4275 4563 c-50 -19 -167 -63 -262 -97 l-172 -62 29 -30 c31 -32 25
-2 81 -409 l21 -160 172 28 c94 16 172 30 174 32 2 2 -13 115 -33 252 l-37
248 62 113 c34 62 61 115 59 117 -2 2 -45 -12 -94 -32z"/>
<path d="M1118 4343 c-29 -7 -21 -28 17 -46 19 -9 35 -15 35 -13 0 13 -23 66
-28 65 -4 -1 -15 -3 -24 -6z"/>
<path d="M3420 4274 c-102 -33 -439 -116 -621 -152 l-194 -39 -12 -54 c-22
-95 -94 -481 -91 -484 3 -3 351 35 356 39 1 2 11 67 22 146 11 79 21 144 22
145 2 1 82 14 178 29 96 15 184 29 196 31 18 4 28 -12 79 -120 32 -69 63 -125
69 -125 21 0 326 105 326 112 0 9 -122 239 -207 391 -30 53 -59 97 -66 96 -7
-1 -32 -7 -57 -15z"/>
<path d="M6465 4033 c8 -45 65 -573 65 -599 l0 -24 -672 -1 -673 0 64 -24 c35
-13 68 -28 74 -34 8 -8 201 -11 639 -11 591 0 628 1 628 18 0 9 -16 171 -37
360 l-38 342 -27 0 c-24 0 -27 -3 -23 -27z"/>
<path d="M1675 3904 c-49 -14 -125 -34 -167 -45 -43 -12 -78 -26 -78 -32 0
-10 179 -578 185 -584 1 -2 35 8 76 22 104 36 365 116 553 169 88 25 161 48
163 50 3 3 -77 315 -83 325 -2 1 -106 -29 -232 -68 -126 -39 -232 -71 -235
-71 -3 0 -24 59 -47 130 -22 72 -42 130 -43 129 -1 0 -42 -12 -92 -25z"/>
<path d="M85 3826 l-16 -37 257 -572 c141 -315 257 -573 258 -574 1 -1 107 40
236 92 128 52 237 96 242 97 8 3 -28 98 -37 98 -5 0 -302 -120 -369 -149 -27
-12 -50 -20 -52 -18 -2 2 -112 246 -245 543 -133 296 -245 543 -250 548 -5 6
-15 -6 -24 -28z"/>
<path d="M758 3833 c-16 -4 -16 -8 3 -56 11 -29 22 -53 24 -55 7 -7 44 23 59
49 20 33 20 34 0 53 -15 15 -49 19 -86 9z"/>
<path d="M3105 3808 c-60 -10 -111 -21 -114 -24 -6 -6 -20 -108 -15 -113 2 -2
50 4 108 13 58 9 112 16 121 16 11 0 36 -42 77 -127 34 -71 62 -129 63 -131 1
-1 118 36 260 83 190 64 260 83 265 74 6 -9 32 -3 101 24 52 20 102 39 112 43
13 5 17 1 17 -19 0 -14 4 -29 10 -32 9 -5 280 31 287 39 2 2 0 27 -5 57 l-8
54 -39 -3 c-37 -3 -364 -55 -426 -68 -21 -4 -28 -1 -32 17 -11 41 -32 15 -29
-34 2 -26 1 -47 -2 -47 -3 0 -15 18 -26 39 l-20 39 -82 -25 c-46 -14 -146 -47
-222 -74 -77 -27 -140 -48 -141 -47 -1 2 -31 63 -65 136 -35 72 -68 132 -74
131 -6 -1 -60 -10 -121 -21z"/>
<path d="M1135 3726 c-82 -34 -193 -84 -245 -111 -72 -36 -141 -60 -285 -97
-104 -27 -193 -53 -196 -56 -5 -6 232 -556 244 -569 3 -2 307 116 316 124 2 1
-19 58 -47 125 -28 68 -54 130 -57 139 -5 13 3 17 36 22 55 7 153 57 211 107
58 50 132 160 158 234 22 66 36 146 24 146 -5 0 -76 -29 -159 -64z"/>
<path d="M1357 3590 c-25 -71 -109 -192 -174 -249 -31 -28 -85 -65 -120 -83
-35 -18 -63 -37 -62 -43 0 -5 8 -27 17 -48 l17 -38 71 50 c104 73 176 172 241
331 9 22 21 -8 93 -230 45 -140 83 -256 84 -257 1 -2 64 18 140 43 108 36 140
44 146 34 11 -18 167 28 173 50 3 10 89 41 263 94 257 78 261 79 464 99 113
11 206 21 207 21 1 1 5 30 9 65 l7 63 -39 -6 c-21 -3 -114 -13 -205 -22 -149
-16 -166 -19 -162 -35 4 -14 -5 -20 -39 -29 -196 -52 -559 -160 -791 -237 -76
-25 -141 -43 -144 -40 -3 3 -43 119 -88 257 -45 138 -85 253 -87 255 -2 2 -11
-18 -21 -45z"/>
<path d="M4770 3391 c0 -22 36 -32 71 -19 13 5 47 16 74 23 l50 14 -97 0 c-90
1 -98 -1 -98 -18z"/>
<path d="M3547 3343 c-3 -5 8 -75 23 -156 24 -131 30 -152 55 -175 l27 -27 -5
25 c-3 14 -18 96 -33 183 -23 132 -31 157 -45 157 -10 0 -20 -3 -22 -7z"/>
<path d="M4300 3188 c0 -7 10 -80 21 -163 16 -106 30 -169 50 -215 16 -36 28
-58 28 -50 1 8 -13 105 -29 215 -16 110 -30 206 -30 213 0 6 -9 12 -20 12 -11
0 -20 -6 -20 -12z"/>
<path d="M1978 3053 c-25 -6 -23 -20 26 -173 42 -133 53 -151 84 -131 11 7 4
38 -34 160 -26 83 -50 150 -53 150 -3 -1 -14 -3 -23 -6z"/>
<path d="M4922 2894 c-27 -18 -28 -45 -4 -67 39 -35 102 -11 102 38 0 42 -56
58 -98 29z"/>
<path d="M5270 2880 c-19 -4 -60 -13 -91 -20 -50 -10 -57 -14 -62 -38 -8 -39
-45 -82 -83 -98 -69 -29 -162 -10 -202 41 l-18 23 -150 -30 c-82 -17 -150 -31
-152 -33 -3 -3 21 -188 69 -518 31 -218 33 -228 53 -223 12 3 87 13 168 22
141 16 147 18 143 38 -6 25 -65 381 -65 390 0 4 9 2 21 -4 40 -22 136 -31 206
-20 101 16 173 53 238 121 69 73 102 144 119 266 6 39 5 41 -16 35 -12 -3 -42
-25 -66 -49 -25 -26 -42 -37 -39 -26 3 10 8 29 12 41 4 13 4 39 0 58 -6 37
-16 40 -85 24z"/>
<path d="M1259 2817 l-26 -12 123 -345 c68 -190 131 -364 140 -387 13 -37 20
-43 45 -43 16 0 29 3 29 6 0 8 -270 766 -279 781 -4 8 -12 8 -32 0z"/>
<path d="M4296 2654 c-23 -16 -75 -18 -108 -4 -18 8 -62 3 -188 -23 l-165 -33
1 -35 c1 -46 42 -135 83 -182 18 -20 57 -48 88 -63 47 -23 68 -28 132 -27 94
1 228 41 273 82 l31 28 -57 129 c-32 71 -61 132 -64 136 -4 4 -16 0 -26 -8z"/>
<path d="M3100 2535 c-102 -7 -218 -18 -257 -26 -88 -16 -90 -23 -38 -126 150
-300 558 -360 801 -117 51 52 95 129 109 192 l7 32 -65 0 c-35 0 -98 3 -140 6
-64 6 -77 4 -77 -8 0 -43 -113 -108 -189 -108 -39 0 -143 46 -149 66 -1 7 28
21 70 34 40 12 107 32 148 45 l75 23 -55 0 c-30 -1 -138 -6 -240 -13z"/>
<path d="M5448 2494 c-95 -116 -236 -184 -386 -184 -62 0 -64 -1 -58 -22 3
-13 6 -32 6 -43 1 -45 11 -48 99 -31 157 29 283 122 352 258 17 33 29 62 27
63 -2 2 -20 -16 -40 -41z"/>
<path d="M2115 2366 c-446 -90 -510 -105 -507 -120 3 -15 154 -449 181 -518
l10 -28 163 57 c90 31 164 57 165 58 2 1 -31 101 -71 223 -41 122 -71 224 -68
226 16 9 335 97 339 93 2 -3 34 -103 70 -223 36 -121 67 -220 69 -222 3 -4
325 86 332 92 2 3 -17 78 -43 168 -89 313 -83 298 -108 297 -12 -1 -251 -47
-532 -103z"/>
<path d="M3768 2320 c-39 -78 -97 -141 -183 -198 -115 -78 -184 -97 -340 -97
-149 0 -207 14 -308 76 -34 20 -63 36 -65 34 -2 -2 6 -35 18 -74 23 -80 28
-83 145 -123 57 -19 90 -23 180 -22 124 1 210 24 312 86 73 44 174 152 207
222 l27 57 28 -38 c43 -59 108 -110 170 -134 109 -43 281 -26 416 41 33 16 63
26 66 22 4 -4 19 -96 35 -205 l28 -199 35 6 c20 3 135 17 256 32 121 14 221
27 222 28 2 1 -1 22 -5 47 l-8 44 -54 -3 c-30 -2 -136 -14 -235 -27 -99 -13
-181 -22 -183 -20 -2 2 -14 79 -28 172 -13 92 -26 182 -29 200 l-6 32 -61 -29
c-141 -67 -329 -79 -438 -29 -63 30 -112 68 -149 119 l-26 35 -27 -55z"/>
<path d="M2182 2216 c-65 -17 -72 -21 -66 -40 19 -60 24 -68 42 -61 9 4 31 9
47 12 l30 5 69 -225 68 -224 132 39 c72 21 185 53 251 70 66 17 121 32 123 34
8 5 -20 84 -30 84 -6 0 -108 -28 -225 -61 -118 -34 -218 -57 -222 -53 -5 5
-36 101 -71 214 -34 113 -65 210 -69 215 -4 7 -31 4 -79 -9z"/>
<path d="M4085 1974 c-11 -3 -43 -12 -72 -20 l-51 -14 51 -198 c28 -108 51
-198 52 -200 7 -9 138 43 181 73 193 133 147 351 -76 361 -36 2 -74 1 -85 -2z
m94 -105 c37 -13 51 -35 51 -82 0 -22 -8 -40 -22 -54 -25 -22 -68 -47 -73 -41
-3 3 -35 156 -35 168 0 7 14 14 41 19 3 0 20 -4 38 -10z"/>
<path d="M4130 1833 c0 -10 7 -40 15 -68 11 -38 14 -42 12 -17 -3 29 -1 34 25
39 32 6 36 23 10 46 -25 23 -62 22 -62 0z"/>
<path d="M1441 1925 c-51 -16 -107 -66 -127 -112 -51 -118 37 -243 169 -243
125 1 207 107 183 235 -10 52 -66 110 -121 124 -52 13 -49 13 -104 -4z"/>
<path d="M3708 1897 c-32 -12 -58 -26 -58 -32 0 -5 30 -99 66 -207 l65 -197
97 34 c53 18 109 38 124 44 l27 10 -16 48 c-9 26 -17 50 -19 52 -1 1 -33 -7
-69 -19 -36 -12 -68 -20 -69 -19 -2 2 -20 73 -41 157 -20 83 -40 152 -44 151
-3 0 -32 -10 -63 -22z"/>
<path d="M3445 1823 c-24 -5 -138 -44 -144 -49 -9 -9 114 -404 126 -404 7 0
32 10 57 22 l44 21 -20 54 c-21 53 -21 54 -2 68 17 13 22 11 49 -23 17 -20 41
-49 55 -64 l25 -27 48 43 48 43 -63 48 c-35 27 -65 50 -67 52 -3 2 5 21 17 42
65 115 -26 206 -173 174z m66 -93 c30 -17 23 -54 -17 -90 -40 -35 -44 -33 -67
27 l-16 41 37 16 c46 19 40 18 63 6z"/>
<path d="M3454 1702 c-13 -8 0 -52 15 -52 13 0 41 41 35 52 -6 10 -35 10 -50
0z"/>
<path d="M4390 1798 c0 -49 -41 -128 -89 -171 -44 -40 -152 -97 -183 -97 -21
0 -21 1 -7 -54 l11 -43 40 9 c59 13 144 57 192 99 76 67 105 164 72 243 -20
48 -36 54 -36 14z"/>
<path d="M1181 1682 c-25 -119 35 -233 154 -288 105 -50 239 -23 321 65 28 30
41 37 51 29 9 -7 79 12 255 73 134 45 244 83 245 84 7 4 -22 75 -31 75 -6 0
-107 -32 -225 -72 -147 -50 -215 -69 -218 -61 -3 7 -17 -3 -35 -23 -64 -73
-197 -112 -294 -85 -97 26 -173 107 -200 210 l-11 46 -12 -53z"/>
<path d="M3012 1704 c-29 -14 -60 -38 -70 -52 -80 -115 -40 -276 83 -333 153
-71 334 78 295 241 -35 144 -176 210 -308 144z m139 -114 c50 -27 64 -116 24
-155 -56 -57 -145 -15 -145 70 0 72 62 116 121 85z"/>
<path d="M3093 1570 c-25 -10 -43 -39 -43 -68 0 -17 5 -19 39 -15 21 3 48 0
60 -6 28 -16 38 7 19 45 -18 37 -48 54 -75 44z"/>
<path d="M3643 1643 c-14 -28 -9 -43 13 -43 15 0 17 23 6 52 -6 15 -9 13 -19
-9z"/>
<path d="M2726 1609 c-3 -17 -6 -64 -6 -103 0 -105 -11 -110 -50 -22 -18 42
-34 76 -37 76 -2 0 -19 -6 -38 -14 l-34 -15 -3 -78 -3 -78 -39 100 c-22 55
-40 101 -41 103 -2 2 -32 -11 -68 -29 l-64 -32 42 -91 c23 -50 65 -140 93
-199 l51 -108 51 26 50 25 1 73 c1 111 9 119 43 40 40 -93 41 -94 90 -87 22 4
43 9 46 11 2 2 14 98 25 213 l21 208 -29 6 c-16 3 -44 6 -62 6 -28 0 -33 -4
-39 -31z"/>
<path d="M2692 1510 c0 -14 2 -19 5 -12 2 6 2 18 0 25 -3 6 -5 1 -5 -13z"/>
<path d="M3905 1479 c-60 -22 -111 -41 -112 -43 -4 -4 18 -69 27 -79 6 -7 236
67 252 82 4 4 2 23 -4 44 -14 47 -23 47 -163 -4z"/>
<path d="M3520 1508 c-1 -29 118 -198 140 -198 5 0 29 19 55 43 l47 42 -32 23
-31 23 -36 -27 -36 -27 -21 24 c-12 14 -35 43 -53 64 -18 22 -32 37 -33 33z"/>
<path d="M2880 1408 c0 -132 90 -228 214 -228 62 0 95 10 148 47 42 28 88 111
88 156 l0 30 -23 -34 c-37 -54 -108 -92 -183 -97 -103 -7 -174 32 -218 120
l-26 52 0 -46z"/>
<path d="M2309 1417 l-27 -12 95 -200 c51 -110 97 -203 102 -208 4 -4 29 2 54
14 40 20 47 27 52 61 4 22 5 42 2 44 -3 3 -19 -2 -37 -11 -18 -9 -33 -15 -35
-13 -1 2 -38 78 -80 171 -43 92 -83 167 -89 166 -6 0 -23 -6 -37 -12z"/>
<path d="M3448 1349 c-41 -21 -44 -29 -27 -76 l10 -31 58 25 59 25 -16 39
c-17 44 -30 47 -84 18z"/>
<path d="M2649 1200 c-3 -45 1 -75 13 -102 16 -36 19 -38 63 -38 40 0 47 3 55
26 6 14 10 39 10 55 0 28 -2 29 -45 29 -43 0 -45 1 -69 48 l-24 47 -3 -65z"/>
</g>
</svg>
